<svg xmlns="http://www.w3.org/2000/svg" viewBox="0 0 147.41 68.983"><defs><linearGradient id="a" x1="8.786" y1="105.417" x2="138.624" y2="30.463" gradientTransform="matrix(1 0 0 -1 0 97.41)" gradientUnits="userSpaceOnUse"><stop offset="0" stop-color="#2a3bac"/><stop offset=".11" stop-color="#3039ab"/><stop offset=".26" stop-color="#4236a9"/><stop offset=".43" stop-color="#6032a6"/><stop offset=".63" stop-color="#892ba2"/><stop offset=".84" stop-color="#be229c"/><stop offset="1" stop-color="#ed1b98"/></linearGradient></defs><path d="M141.11 2.025c-45.03-2.7-89.78-2.7-134.82 0C2.81 2.265 0 5.485 0 9.185v40.57c0 3.7 2.82 6.92 6.29 7.16 5.49.33 10.98.62 16.46.87l10.5 10.5c.93.93 2.45.93 3.39 0l9.68-9.68c31.59.77 63.12.22 94.8-1.69 3.48-.24 6.29-3.46 6.29-7.16V9.185c0-3.7-2.82-6.92-6.29-7.16h-.01z" fill="url(#a)" fill-rule="evenodd"/><path d="M30.96 15.935c-1.25-.79-3-1.2-5.19-1.2h-7.16c-1.41 0-2.61 1.07-2.76 2.47l-2.68 23.82h5.41l1.04-9.27h4.48c1.58 0 3.11-.33 4.54-.97a9.377 9.377 0 003.62-2.89c.98-1.27 1.58-2.86 1.79-4.72.16-1.47 0-2.86-.48-4.15-.48-1.26-1.35-2.31-2.6-3.1l-.01.01zm-2.5 7.43c-.13 1.16-.61 2.13-1.42 2.88-.81.76-1.83 1.14-3.02 1.14H20.1l.02-.2.9-8.04h3.82c1.23 0 2.19.4 2.84 1.19.65.78.91 1.8.77 3.02l.01.01zm18.25-1.85l-2.19 4.52c-1.37.04-2.55.48-3.5 1.32-1 .88-1.48 2.13-1.64 3.73l-1.11 9.95H33l1.87-16.93c.13-1.31 1.24-2.36 2.56-2.36h2.56l.13 2.74.37-.44c.54-.63 1.26-1.24 2.15-1.82.86-.56 1.92-.76 3.21-.76.32 0 .6.03.86.05zm50.74-2.98c-.57-.63-.83-1.46-.74-2.36.19-1.87 1.86-3.39 3.72-3.39.89 0 1.68.34 2.25.97s.83 1.46.74 2.36c-.19 1.87-1.86 3.39-3.72 3.39-.89 0-1.69-.34-2.25-.97zm38.24 2.94c-1.3-.02-2.3.27-3.17.83-.89.58-1.61 1.19-2.15 1.82l-.48.57-.02-2.96h-2.73c-1.32 0-2.43 1-2.56 2.31l-.97 8.72c-6.29 5.31-9.99 3.23-9.99 3.23l.54-.21c.28-.11 1.76-.74 3.78-2.78 2.62-2.36 3.4-6.02 2.36-8.68-.75-1.92-2.4-3.03-4.65-3.13-2.63-.12-5.1.83-6.94 2.67-2.1 2.1-3.23 5.42-3.08 8.68.04.98.19 1.9.45 2.76l.19.68s-1.6.64-2.85.63c-1.19 0-1.77-.18-2.23-.69-.43-.48-.57-1.25-.46-2.14l1.36-12.08h-3.15c-1.31 0-2.41.97-2.56 2.27l-1.11 9.56c-.09.83-.08 1.23-.07 1.95l.03.68-.16.05c-.9.28-1.68.41-2.37.41-.96 0-1.61-.23-2.03-.7-.42-.48-.57-1.18-.46-2.13l.65-5.51c.26-2.31-.16-4.16-1.23-5.35-.86-.97-2.1-1.48-3.6-1.48-2.32 0-4.33.99-6 2.95l-.32.37-.19-.45c-.78-1.83-2.47-2.89-4.66-2.89-1.34 0-3.3.38-5.11 2.16l-.61.6.28-2.48h-3.15c-1.31 0-2.41.97-2.56 2.27l-1.07 9.23-.12.08c-3.37 2.64-8.81 4.52-11.12 2.6l-.54-.45.7-.08c1.72-.2 3.92-1.31 5.21-2.29 2.48-1.89 3.66-5.59 2.69-8.42-.24-.68-.61-1.32-1.12-1.83s-1.14-.87-1.82-1.09c-.88-.29-1.82-.32-2.74-.3s-1.86.16-2.76.45c-.81.27-1.58.65-2.27 1.15-.41.3-.78.63-1.14.99-2.01 2.09-3.09 5.32-2.94 8.87.13 3.24 1.57 5.6 3.99 7.13 3.65 2.33 8.55 1.51 12.8-.73l.5-.26-.18 1.97h5.45l.65-5.8c.43-3.35 1.2-5.78 2.3-7.4 1.13-1.67 2.27-1.85 2.7-1.85.52 0 .88.14 1.14.43.46.51.56 1.47.35 3.32l-1.29 11.3h5.45l.62-5.43c.4-3.49 1.14-6.01 2.19-7.67 1.09-1.73 2.21-1.92 2.64-1.92.48 0 .81.12 1.04.38.42.47.48 1.32.24 3.37l-.5 4.13c-.28 2.41.15 4.28 1.29 5.57 1.15 1.3 2.99 1.96 5.48 1.96 1.68 0 3.7-.29 5.73-1.16l.14-.06.13.07c1.14.65 2.13 1.15 4.71 1.15 4.34 0 6.76-1.86 6.76-1.86l.15.13c2.31 1.64 4.49 1.72 5.61 1.73 1.26.01 2.74-.26 4.56-.82 1.67-.55 2.43-1.03 3.58-1.58l-.23 2.02h5.34l1.04-9.12c.16-1.59.89-2.79 1.74-3.73 1.56-1.73 4.32-2.05 4.59-2.02l2.15-4.48c-.17-.05-1.36-.2-1.88-.21l.04.02zm-85.72 10.27v-.29c-.02-.56.04-1.08.06-1.28.11-.81.37-1.71.7-2.41.69-1.45 1.69-2.22 2.89-2.22.6 0 1.07.25 1.35.72.55.92.15 2.71-.57 3.52-1.18 1.35-2.98 1.96-4.15 1.96h-.29.01zm61.2 1.21l-.15-.1c-.23-.19-.61-1.1-.41-2.78.07-.56.23-1.15.48-1.76.6-1.46 2.08-3.02 3.93-3.02.6 0 1.07.25 1.35.72.6 1.01-.14 2.61-.62 3.32-1.18 1.75-3.17 3.15-4.44 3.57l-.15.05h.01z" fill="#fff"/></svg>